<?xml version="1.0" standalone="no"?>
<!DOCTYPE svg PUBLIC "-//W3C//DTD SVG 20010904//EN"
 "http://www.w3.org/TR/2001/REC-SVG-20010904/DTD/svg10.dtd">
<svg version="1.0" xmlns="http://www.w3.org/2000/svg"
 width="1138.000000pt" height="1138.000000pt" viewBox="0 0 1138.000000 1138.000000"
 preserveAspectRatio="xMidYMid meet">
<metadata>
Created by potrace 1.11, written by Peter Selinger 2001-2013
</metadata>
<g transform="translate(0.000000,1138.000000) scale(0.100000,-0.100000)"
fill="#000000" stroke="none">
<path d="M5512 11289 c-508 -35 -1048 -154 -1557 -344 -2031 -760 -3472 -2588
-3734 -4740 -33 -273 -44 -507 -38 -820 10 -485 63 -875 182 -1340 208 -813
578 -1530 1082 -2099 53 -60 115 -134 138 -165 52 -70 311 -322 480 -467 840
-720 1799 -1125 2935 -1239 765 -77 1440 2 2200 255 291 97 494 180 765 315
1001 496 1823 1255 2395 2210 384 641 651 1391 759 2130 70 480 80 1055 25
1530 -76 666 -235 1227 -505 1784 -125 258 -211 408 -370 646 -651 974 -1621
1710 -2749 2085 -643 214 -1340 304 -2008 259z"/>
</g>
</svg>
